<?xml version="1.0" encoding="utf-8" standalone="no"?>
<!DOCTYPE svg PUBLIC "-//W3C//DTD SVG 1.1//EN"
  "http://www.w3.org/Graphics/SVG/1.1/DTD/svg11.dtd">
<svg xmlns:xlink="http://www.w3.org/1999/xlink" width="480.525pt" height="378.83625pt" viewBox="0 0 480.525 378.83625" xmlns="http://www.w3.org/2000/svg" version="1.1">
 <metadata>
  <rdf:RDF xmlns:dc="http://purl.org/dc/elements/1.1/" xmlns:cc="http://creativecommons.org/ns#" xmlns:rdf="http://www.w3.org/1999/02/22-rdf-syntax-ns#">
   <cc:Work>
    <dc:type rdf:resource="http://purl.org/dc/dcmitype/StillImage"/>
    <dc:date>2025-11-14T12:32:23.841232</dc:date>
    <dc:format>image/svg+xml</dc:format>
    <dc:creator>
     <cc:Agent>
      <dc:title>Matplotlib v3.10.5, https://matplotlib.org/</dc:title>
     </cc:Agent>
    </dc:creator>
   </cc:Work>
  </rdf:RDF>
 </metadata>
 <defs>
  <style type="text/css">*{stroke-linejoin: round; stroke-linecap: butt}</style>
 </defs>
 <g id="figure_1">
  <g id="patch_1">
   <path d="M 0 378.83625 
L 480.525 378.83625 
L 480.525 0 
L 0 0 
z
" style="fill: #ffffff"/>
  </g>
  <g id="axes_1">
   <g id="patch_2">
    <path d="M 26.925 354.958125 
L 473.325 354.958125 
L 473.325 22.318125 
L 26.925 22.318125 
z
" style="fill: #ffffff"/>
   </g>
   <g id="patch_3">
    <path d="M 47.215909 332.173329 
L 50.468961 332.173329 
L 50.468961 330.65691 
L 47.215909 330.65691 
z
" clip-path="url(#p89a44e8da1)" style="fill: #1f77b4"/>
   </g>
   <g id="patch_4">
    <path d="M 51.282224 332.173329 
L 54.535275 332.173329 
L 54.535275 331.670702 
L 51.282224 331.670702 
z
" clip-path="url(#p89a44e8da1)" style="fill: #1f77b4"/>
   </g>
   <g id="patch_5">
    <path d="M 55.348538 332.173329 
L 58.60159 332.173329 
L 58.60159 327.643975 
L 55.348538 327.643975 
z
" clip-path="url(#p89a44e8da1)" style="fill: #1f77b4"/>
   </g>
   <g id="patch_6">
    <path d="M 59.414852 332.173329 
L 62.667904 332.173329 
L 62.667904 330.534715 
L 59.414852 330.534715 
z
" clip-path="url(#p89a44e8da1)" style="fill: #1f77b4"/>
   </g>
   <g id="patch_7">
    <path d="M 63.481167 332.173329 
L 66.734218 332.173329 
L 66.734218 335.190611 
L 63.481167 335.190611 
z
" clip-path="url(#p89a44e8da1)" style="fill: #1f77b4"/>
   </g>
   <g id="patch_8">
    <path d="M 67.547481 332.173329 
L 70.800533 332.173329 
L 70.800533 333.407081 
L 67.547481 333.407081 
z
" clip-path="url(#p89a44e8da1)" style="fill: #1f77b4"/>
   </g>
   <g id="patch_9">
    <path d="M 71.613796 332.173329 
L 74.866847 332.173329 
L 74.866847 334.017758 
L 71.613796 334.017758 
z
" clip-path="url(#p89a44e8da1)" style="fill: #1f77b4"/>
   </g>
   <g id="patch_10">
    <path d="M 75.68011 332.173329 
L 78.933162 332.173329 
L 78.933162 332.032524 
L 75.68011 332.032524 
z
" clip-path="url(#p89a44e8da1)" style="fill: #1f77b4"/>
   </g>
   <g id="patch_11">
    <path d="M 79.746425 332.173329 
L 82.999476 332.173329 
L 82.999476 329.578507 
L 79.746425 329.578507 
z
" clip-path="url(#p89a44e8da1)" style="fill: #1f77b4"/>
   </g>
   <g id="patch_12">
    <path d="M 83.812739 332.173329 
L 87.065791 332.173329 
L 87.065791 330.19067 
L 83.812739 330.19067 
z
" clip-path="url(#p89a44e8da1)" style="fill: #1f77b4"/>
   </g>
   <g id="patch_13">
    <path d="M 87.879054 332.173329 
L 91.132105 332.173329 
L 91.132105 331.908335 
L 87.879054 331.908335 
z
" clip-path="url(#p89a44e8da1)" style="fill: #1f77b4"/>
   </g>
   <g id="patch_14">
    <path d="M 91.945368 332.173329 
L 95.19842 332.173329 
L 95.19842 331.678974 
L 91.945368 331.678974 
z
" clip-path="url(#p89a44e8da1)" style="fill: #1f77b4"/>
   </g>
   <g id="patch_15">
    <path d="M 96.011682 332.173329 
L 99.264734 332.173329 
L 99.264734 334.782004 
L 96.011682 334.782004 
z
" clip-path="url(#p89a44e8da1)" style="fill: #1f77b4"/>
   </g>
   <g id="patch_16">
    <path d="M 100.077997 332.173329 
L 103.331048 332.173329 
L 103.331048 335.100958 
L 100.077997 335.100958 
z
" clip-path="url(#p89a44e8da1)" style="fill: #1f77b4"/>
   </g>
   <g id="patch_17">
    <path d="M 104.144311 332.173329 
L 107.397363 332.173329 
L 107.397363 330.653425 
L 104.144311 330.653425 
z
" clip-path="url(#p89a44e8da1)" style="fill: #1f77b4"/>
   </g>
   <g id="patch_18">
    <path d="M 108.210626 332.173329 
L 111.463677 332.173329 
L 111.463677 331.514627 
L 108.210626 331.514627 
z
" clip-path="url(#p89a44e8da1)" style="fill: #1f77b4"/>
   </g>
   <g id="patch_19">
    <path d="M 112.27694 332.173329 
L 115.529992 332.173329 
L 115.529992 334.516947 
L 112.27694 334.516947 
z
" clip-path="url(#p89a44e8da1)" style="fill: #1f77b4"/>
   </g>
   <g id="patch_20">
    <path d="M 116.343255 332.173329 
L 119.596306 332.173329 
L 119.596306 333.682098 
L 116.343255 333.682098 
z
" clip-path="url(#p89a44e8da1)" style="fill: #1f77b4"/>
   </g>
   <g id="patch_21">
    <path d="M 120.409569 332.173329 
L 123.662621 332.173329 
L 123.662621 336.381126 
L 120.409569 336.381126 
z
" clip-path="url(#p89a44e8da1)" style="fill: #1f77b4"/>
   </g>
   <g id="patch_22">
    <path d="M 124.475884 332.173329 
L 127.728935 332.173329 
L 127.728935 335.117212 
L 124.475884 335.117212 
z
" clip-path="url(#p89a44e8da1)" style="fill: #1f77b4"/>
   </g>
   <g id="patch_23">
    <path d="M 128.542198 332.173329 
L 131.79525 332.173329 
L 131.79525 332.664947 
L 128.542198 332.664947 
z
" clip-path="url(#p89a44e8da1)" style="fill: #1f77b4"/>
   </g>
   <g id="patch_24">
    <path d="M 132.608512 332.173329 
L 135.861564 332.173329 
L 135.861564 330.346198 
L 132.608512 330.346198 
z
" clip-path="url(#p89a44e8da1)" style="fill: #1f77b4"/>
   </g>
   <g id="patch_25">
    <path d="M 136.674827 332.173329 
L 139.927878 332.173329 
L 139.927878 326.529612 
L 136.674827 326.529612 
z
" clip-path="url(#p89a44e8da1)" style="fill: #1f77b4"/>
   </g>
   <g id="patch_26">
    <path d="M 140.741141 332.173329 
L 143.994193 332.173329 
L 143.994193 329.887711 
L 140.741141 329.887711 
z
" clip-path="url(#p89a44e8da1)" style="fill: #1f77b4"/>
   </g>
   <g id="patch_27">
    <path d="M 144.807456 332.173329 
L 148.060507 332.173329 
L 148.060507 334.043663 
L 144.807456 334.043663 
z
" clip-path="url(#p89a44e8da1)" style="fill: #1f77b4"/>
   </g>
   <g id="patch_28">
    <path d="M 148.87377 332.173329 
L 152.126822 332.173329 
L 152.126822 325.243019 
L 148.87377 325.243019 
z
" clip-path="url(#p89a44e8da1)" style="fill: #1f77b4"/>
   </g>
   <g id="patch_29">
    <path d="M 152.940085 332.173329 
L 156.193136 332.173329 
L 156.193136 329.946746 
L 152.940085 329.946746 
z
" clip-path="url(#p89a44e8da1)" style="fill: #1f77b4"/>
   </g>
   <g id="patch_30">
    <path d="M 157.006399 332.173329 
L 160.259451 332.173329 
L 160.259451 334.892419 
L 157.006399 334.892419 
z
" clip-path="url(#p89a44e8da1)" style="fill: #1f77b4"/>
   </g>
   <g id="patch_31">
    <path d="M 161.072714 332.173329 
L 164.325765 332.173329 
L 164.325765 336.740031 
L 161.072714 336.740031 
z
" clip-path="url(#p89a44e8da1)" style="fill: #1f77b4"/>
   </g>
   <g id="patch_32">
    <path d="M 165.139028 332.173329 
L 168.39208 332.173329 
L 168.39208 333.980476 
L 165.139028 333.980476 
z
" clip-path="url(#p89a44e8da1)" style="fill: #1f77b4"/>
   </g>
   <g id="patch_33">
    <path d="M 169.205343 332.173329 
L 172.458394 332.173329 
L 172.458394 333.668024 
L 169.205343 333.668024 
z
" clip-path="url(#p89a44e8da1)" style="fill: #1f77b4"/>
   </g>
   <g id="patch_34">
    <path d="M 173.271657 332.173329 
L 176.524709 332.173329 
L 176.524709 334.61362 
L 173.271657 334.61362 
z
" clip-path="url(#p89a44e8da1)" style="fill: #1f77b4"/>
   </g>
   <g id="patch_35">
    <path d="M 177.337971 332.173329 
L 180.591023 332.173329 
L 180.591023 326.636065 
L 177.337971 326.636065 
z
" clip-path="url(#p89a44e8da1)" style="fill: #1f77b4"/>
   </g>
   <g id="patch_36">
    <path d="M 181.404286 332.173329 
L 184.657337 332.173329 
L 184.657337 332.034077 
L 181.404286 332.034077 
z
" clip-path="url(#p89a44e8da1)" style="fill: #1f77b4"/>
   </g>
   <g id="patch_37">
    <path d="M 185.4706 332.173329 
L 188.723652 332.173329 
L 188.723652 333.061194 
L 185.4706 333.061194 
z
" clip-path="url(#p89a44e8da1)" style="fill: #1f77b4"/>
   </g>
   <g id="patch_38">
    <path d="M 189.536915 332.173329 
L 192.789966 332.173329 
L 192.789966 332.128728 
L 189.536915 332.128728 
z
" clip-path="url(#p89a44e8da1)" style="fill: #1f77b4"/>
   </g>
   <g id="patch_39">
    <path d="M 193.603229 332.173329 
L 196.856281 332.173329 
L 196.856281 334.878698 
L 193.603229 334.878698 
z
" clip-path="url(#p89a44e8da1)" style="fill: #1f77b4"/>
   </g>
   <g id="patch_40">
    <path d="M 197.669544 332.173329 
L 200.922595 332.173329 
L 200.922595 331.033843 
L 197.669544 331.033843 
z
" clip-path="url(#p89a44e8da1)" style="fill: #1f77b4"/>
   </g>
   <g id="patch_41">
    <path d="M 201.735858 332.173329 
L 204.98891 332.173329 
L 204.98891 331.655946 
L 201.735858 331.655946 
z
" clip-path="url(#p89a44e8da1)" style="fill: #1f77b4"/>
   </g>
   <g id="patch_42">
    <path d="M 205.802173 332.173329 
L 209.055224 332.173329 
L 209.055224 336.322706 
L 205.802173 336.322706 
z
" clip-path="url(#p89a44e8da1)" style="fill: #1f77b4"/>
   </g>
   <g id="patch_43">
    <path d="M 209.868487 332.173329 
L 213.121539 332.173329 
L 213.121539 334.341006 
L 209.868487 334.341006 
z
" clip-path="url(#p89a44e8da1)" style="fill: #1f77b4"/>
   </g>
   <g id="patch_44">
    <path d="M 213.934801 332.173329 
L 217.187853 332.173329 
L 217.187853 333.782416 
L 213.934801 333.782416 
z
" clip-path="url(#p89a44e8da1)" style="fill: #1f77b4"/>
   </g>
   <g id="patch_45">
    <path d="M 218.001116 332.173329 
L 221.254167 332.173329 
L 221.254167 334.162878 
L 218.001116 334.162878 
z
" clip-path="url(#p89a44e8da1)" style="fill: #1f77b4"/>
   </g>
   <g id="patch_46">
    <path d="M 222.06743 332.173329 
L 225.320482 332.173329 
L 225.320482 329.669954 
L 222.06743 329.669954 
z
" clip-path="url(#p89a44e8da1)" style="fill: #1f77b4"/>
   </g>
   <g id="patch_47">
    <path d="M 226.133745 332.173329 
L 229.386796 332.173329 
L 229.386796 331.81213 
L 226.133745 331.81213 
z
" clip-path="url(#p89a44e8da1)" style="fill: #1f77b4"/>
   </g>
   <g id="patch_48">
    <path d="M 230.200059 332.173329 
L 233.453111 332.173329 
L 233.453111 329.823789 
L 230.200059 329.823789 
z
" clip-path="url(#p89a44e8da1)" style="fill: #1f77b4"/>
   </g>
   <g id="patch_49">
    <path d="M 234.266374 332.173329 
L 237.519425 332.173329 
L 237.519425 331.397066 
L 234.266374 331.397066 
z
" clip-path="url(#p89a44e8da1)" style="fill: #1f77b4"/>
   </g>
   <g id="patch_50">
    <path d="M 238.332688 332.173329 
L 241.58574 332.173329 
L 241.58574 336.526958 
L 238.332688 336.526958 
z
" clip-path="url(#p89a44e8da1)" style="fill: #1f77b4"/>
   </g>
   <g id="patch_51">
    <path d="M 242.399003 332.173329 
L 245.652054 332.173329 
L 245.652054 333.402181 
L 242.399003 333.402181 
z
" clip-path="url(#p89a44e8da1)" style="fill: #1f77b4"/>
   </g>
   <g id="patch_52">
    <path d="M 246.465317 332.173329 
L 249.718369 332.173329 
L 249.718369 329.685057 
L 246.465317 329.685057 
z
" clip-path="url(#p89a44e8da1)" style="fill: #1f77b4"/>
   </g>
   <g id="patch_53">
    <path d="M 250.531631 332.173329 
L 253.784683 332.173329 
L 253.784683 333.143654 
L 250.531631 333.143654 
z
" clip-path="url(#p89a44e8da1)" style="fill: #1f77b4"/>
   </g>
   <g id="patch_54">
    <path d="M 254.597946 332.173329 
L 257.850997 332.173329 
L 257.850997 327.06767 
L 254.597946 327.06767 
z
" clip-path="url(#p89a44e8da1)" style="fill: #1f77b4"/>
   </g>
   <g id="patch_55">
    <path d="M 258.66426 332.173329 
L 261.917312 332.173329 
L 261.917312 334.093301 
L 258.66426 334.093301 
z
" clip-path="url(#p89a44e8da1)" style="fill: #1f77b4"/>
   </g>
   <g id="patch_56">
    <path d="M 262.730575 332.173329 
L 265.983626 332.173329 
L 265.983626 330.860166 
L 262.730575 330.860166 
z
" clip-path="url(#p89a44e8da1)" style="fill: #1f77b4"/>
   </g>
   <g id="patch_57">
    <path d="M 266.796889 332.173329 
L 270.049941 332.173329 
L 270.049941 337.843676 
L 266.796889 337.843676 
z
" clip-path="url(#p89a44e8da1)" style="fill: #1f77b4"/>
   </g>
   <g id="patch_58">
    <path d="M 270.863204 332.173329 
L 274.116255 332.173329 
L 274.116255 334.87488 
L 270.863204 334.87488 
z
" clip-path="url(#p89a44e8da1)" style="fill: #1f77b4"/>
   </g>
   <g id="patch_59">
    <path d="M 274.929518 332.173329 
L 278.18257 332.173329 
L 278.18257 332.240818 
L 274.929518 332.240818 
z
" clip-path="url(#p89a44e8da1)" style="fill: #1f77b4"/>
   </g>
   <g id="patch_60">
    <path d="M 278.995833 332.173329 
L 282.248884 332.173329 
L 282.248884 339.838125 
L 278.995833 339.838125 
z
" clip-path="url(#p89a44e8da1)" style="fill: #1f77b4"/>
   </g>
   <g id="patch_61">
    <path d="M 283.062147 332.173329 
L 286.315199 332.173329 
L 286.315199 332.510767 
L 283.062147 332.510767 
z
" clip-path="url(#p89a44e8da1)" style="fill: #1f77b4"/>
   </g>
   <g id="patch_62">
    <path d="M 287.128461 332.173329 
L 290.381513 332.173329 
L 290.381513 329.48203 
L 287.128461 329.48203 
z
" clip-path="url(#p89a44e8da1)" style="fill: #1f77b4"/>
   </g>
   <g id="patch_63">
    <path d="M 291.194776 332.173329 
L 294.447827 332.173329 
L 294.447827 334.452096 
L 291.194776 334.452096 
z
" clip-path="url(#p89a44e8da1)" style="fill: #1f77b4"/>
   </g>
   <g id="patch_64">
    <path d="M 295.26109 332.173329 
L 298.514142 332.173329 
L 298.514142 330.933136 
L 295.26109 330.933136 
z
" clip-path="url(#p89a44e8da1)" style="fill: #1f77b4"/>
   </g>
   <g id="patch_65">
    <path d="M 299.327405 332.173329 
L 302.580456 332.173329 
L 302.580456 332.86839 
L 299.327405 332.86839 
z
" clip-path="url(#p89a44e8da1)" style="fill: #1f77b4"/>
   </g>
   <g id="patch_66">
    <path d="M 303.393719 332.173329 
L 306.646771 332.173329 
L 306.646771 339.21828 
L 303.393719 339.21828 
z
" clip-path="url(#p89a44e8da1)" style="fill: #1f77b4"/>
   </g>
   <g id="patch_67">
    <path d="M 307.460034 332.173329 
L 310.713085 332.173329 
L 310.713085 325.920186 
L 307.460034 325.920186 
z
" clip-path="url(#p89a44e8da1)" style="fill: #1f77b4"/>
   </g>
   <g id="patch_68">
    <path d="M 311.526348 332.173329 
L 314.7794 332.173329 
L 314.7794 333.458217 
L 311.526348 333.458217 
z
" clip-path="url(#p89a44e8da1)" style="fill: #1f77b4"/>
   </g>
   <g id="patch_69">
    <path d="M 315.592663 332.173329 
L 318.845714 332.173329 
L 318.845714 329.556484 
L 315.592663 329.556484 
z
" clip-path="url(#p89a44e8da1)" style="fill: #1f77b4"/>
   </g>
   <g id="patch_70">
    <path d="M 319.658977 332.173329 
L 322.912029 332.173329 
L 322.912029 332.707386 
L 319.658977 332.707386 
z
" clip-path="url(#p89a44e8da1)" style="fill: #1f77b4"/>
   </g>
   <g id="patch_71">
    <path d="M 323.725291 332.173329 
L 326.978343 332.173329 
L 326.978343 329.533213 
L 323.725291 329.533213 
z
" clip-path="url(#p89a44e8da1)" style="fill: #1f77b4"/>
   </g>
   <g id="patch_72">
    <path d="M 327.791606 332.173329 
L 331.044657 332.173329 
L 331.044657 330.121082 
L 327.791606 330.121082 
z
" clip-path="url(#p89a44e8da1)" style="fill: #1f77b4"/>
   </g>
   <g id="patch_73">
    <path d="M 331.85792 332.173329 
L 335.110972 332.173329 
L 335.110972 326.758696 
L 331.85792 326.758696 
z
" clip-path="url(#p89a44e8da1)" style="fill: #1f77b4"/>
   </g>
   <g id="patch_74">
    <path d="M 335.924235 332.173329 
L 339.177286 332.173329 
L 339.177286 331.716226 
L 335.924235 331.716226 
z
" clip-path="url(#p89a44e8da1)" style="fill: #1f77b4"/>
   </g>
   <g id="patch_75">
    <path d="M 339.990549 332.173329 
L 343.243601 332.173329 
L 343.243601 326.727805 
L 339.990549 326.727805 
z
" clip-path="url(#p89a44e8da1)" style="fill: #1f77b4"/>
   </g>
   <g id="patch_76">
    <path d="M 344.056864 332.173329 
L 347.309915 332.173329 
L 347.309915 331.14524 
L 344.056864 331.14524 
z
" clip-path="url(#p89a44e8da1)" style="fill: #1f77b4"/>
   </g>
   <g id="patch_77">
    <path d="M 348.123178 332.173329 
L 351.37623 332.173329 
L 351.37623 330.977435 
L 348.123178 330.977435 
z
" clip-path="url(#p89a44e8da1)" style="fill: #1f77b4"/>
   </g>
   <g id="patch_78">
    <path d="M 352.189493 332.173329 
L 355.442544 332.173329 
L 355.442544 330.469578 
L 352.189493 330.469578 
z
" clip-path="url(#p89a44e8da1)" style="fill: #1f77b4"/>
   </g>
   <g id="patch_79">
    <path d="M 356.255807 332.173329 
L 359.508859 332.173329 
L 359.508859 333.861327 
L 356.255807 333.861327 
z
" clip-path="url(#p89a44e8da1)" style="fill: #1f77b4"/>
   </g>
   <g id="patch_80">
    <path d="M 360.322122 332.173329 
L 363.575173 332.173329 
L 363.575173 330.720306 
L 360.322122 330.720306 
z
" clip-path="url(#p89a44e8da1)" style="fill: #1f77b4"/>
   </g>
   <g id="patch_81">
    <path d="M 364.388436 332.173329 
L 367.641488 332.173329 
L 367.641488 328.768025 
L 364.388436 328.768025 
z
" clip-path="url(#p89a44e8da1)" style="fill: #1f77b4"/>
   </g>
   <g id="patch_82">
    <path d="M 368.45475 332.173329 
L 371.707802 332.173329 
L 371.707802 329.78888 
L 368.45475 329.78888 
z
" clip-path="url(#p89a44e8da1)" style="fill: #1f77b4"/>
   </g>
   <g id="patch_83">
    <path d="M 372.521065 332.173329 
L 375.774116 332.173329 
L 375.774116 331.039998 
L 372.521065 331.039998 
z
" clip-path="url(#p89a44e8da1)" style="fill: #1f77b4"/>
   </g>
   <g id="patch_84">
    <path d="M 376.587379 332.173329 
L 379.840431 332.173329 
L 379.840431 332.185131 
L 376.587379 332.185131 
z
" clip-path="url(#p89a44e8da1)" style="fill: #1f77b4"/>
   </g>
   <g id="patch_85">
    <path d="M 380.653694 332.173329 
L 383.906745 332.173329 
L 383.906745 334.818451 
L 380.653694 334.818451 
z
" clip-path="url(#p89a44e8da1)" style="fill: #1f77b4"/>
   </g>
   <g id="patch_86">
    <path d="M 384.720008 332.173329 
L 387.97306 332.173329 
L 387.97306 335.225077 
L 384.720008 335.225077 
z
" clip-path="url(#p89a44e8da1)" style="fill: #1f77b4"/>
   </g>
   <g id="patch_87">
    <path d="M 388.786323 332.173329 
L 392.039374 332.173329 
L 392.039374 334.424571 
L 388.786323 334.424571 
z
" clip-path="url(#p89a44e8da1)" style="fill: #1f77b4"/>
   </g>
   <g id="patch_88">
    <path d="M 392.852637 332.173329 
L 396.105689 332.173329 
L 396.105689 333.064117 
L 392.852637 333.064117 
z
" clip-path="url(#p89a44e8da1)" style="fill: #1f77b4"/>
   </g>
   <g id="patch_89">
    <path d="M 396.918952 332.173329 
L 400.172003 332.173329 
L 400.172003 325.852845 
L 396.918952 325.852845 
z
" clip-path="url(#p89a44e8da1)" style="fill: #1f77b4"/>
   </g>
   <g id="patch_90">
    <path d="M 400.985266 332.173329 
L 404.238318 332.173329 
L 404.238318 335.405977 
L 400.985266 335.405977 
z
" clip-path="url(#p89a44e8da1)" style="fill: #1f77b4"/>
   </g>
   <g id="patch_91">
    <path d="M 405.05158 332.173329 
L 408.304632 332.173329 
L 408.304632 332.654595 
L 405.05158 332.654595 
z
" clip-path="url(#p89a44e8da1)" style="fill: #1f77b4"/>
   </g>
   <g id="patch_92">
    <path d="M 409.117895 332.173329 
L 412.370946 332.173329 
L 412.370946 332.761717 
L 409.117895 332.761717 
z
" clip-path="url(#p89a44e8da1)" style="fill: #1f77b4"/>
   </g>
   <g id="patch_93">
    <path d="M 413.184209 332.173329 
L 416.437261 332.173329 
L 416.437261 334.869141 
L 413.184209 334.869141 
z
" clip-path="url(#p89a44e8da1)" style="fill: #1f77b4"/>
   </g>
   <g id="patch_94">
    <path d="M 417.250524 332.173329 
L 420.503575 332.173329 
L 420.503575 332.492451 
L 417.250524 332.492451 
z
" clip-path="url(#p89a44e8da1)" style="fill: #1f77b4"/>
   </g>
   <g id="patch_95">
    <path d="M 421.316838 332.173329 
L 424.56989 332.173329 
L 424.56989 330.675884 
L 421.316838 330.675884 
z
" clip-path="url(#p89a44e8da1)" style="fill: #1f77b4"/>
   </g>
   <g id="patch_96">
    <path d="M 425.383153 332.173329 
L 428.636204 332.173329 
L 428.636204 336.972577 
L 425.383153 336.972577 
z
" clip-path="url(#p89a44e8da1)" style="fill: #1f77b4"/>
   </g>
   <g id="patch_97">
    <path d="M 429.449467 332.173329 
L 432.702519 332.173329 
L 432.702519 331.637364 
L 429.449467 331.637364 
z
" clip-path="url(#p89a44e8da1)" style="fill: #1f77b4"/>
   </g>
   <g id="patch_98">
    <path d="M 433.515782 332.173329 
L 436.768833 332.173329 
L 436.768833 335.773863 
L 433.515782 335.773863 
z
" clip-path="url(#p89a44e8da1)" style="fill: #1f77b4"/>
   </g>
   <g id="patch_99">
    <path d="M 437.582096 332.173329 
L 440.835148 332.173329 
L 440.835148 329.787918 
L 437.582096 329.787918 
z
" clip-path="url(#p89a44e8da1)" style="fill: #1f77b4"/>
   </g>
   <g id="patch_100">
    <path d="M 441.64841 332.173329 
L 444.901462 332.173329 
L 444.901462 328.095752 
L 441.64841 328.095752 
z
" clip-path="url(#p89a44e8da1)" style="fill: #1f77b4"/>
   </g>
   <g id="patch_101">
    <path d="M 445.714725 332.173329 
L 448.967776 332.173329 
L 448.967776 337.479644 
L 445.714725 337.479644 
z
" clip-path="url(#p89a44e8da1)" style="fill: #1f77b4"/>
   </g>
   <g id="patch_102">
    <path d="M 449.781039 332.173329 
L 453.034091 332.173329 
L 453.034091 338.855647 
L 449.781039 338.855647 
z
" clip-path="url(#p89a44e8da1)" style="fill: #1f77b4"/>
   </g>
   <g id="patch_103">
    <path d="M 47.215909 332.173329 
L 50.468961 332.173329 
L 50.468961 164.140393 
L 47.215909 164.140393 
z
" clip-path="url(#p89a44e8da1)" style="fill: #ff7f0e"/>
   </g>
   <g id="patch_104">
    <path d="M 51.282224 332.173329 
L 54.535275 332.173329 
L 54.535275 272.128136 
L 51.282224 272.128136 
z
" clip-path="url(#p89a44e8da1)" style="fill: #ff7f0e"/>
   </g>
   <g id="patch_105">
    <path d="M 55.348538 332.173329 
L 58.60159 332.173329 
L 58.60159 45.601867 
L 55.348538 45.601867 
z
" clip-path="url(#p89a44e8da1)" style="fill: #ff7f0e"/>
   </g>
   <g id="patch_106">
    <path d="M 59.414852 332.173329 
L 62.667904 332.173329 
L 62.667904 170.740624 
L 59.414852 170.740624 
z
" clip-path="url(#p89a44e8da1)" style="fill: #ff7f0e"/>
   </g>
   <g id="patch_107">
    <path d="M 63.481167 332.173329 
L 66.734218 332.173329 
L 66.734218 100.852338 
L 63.481167 100.852338 
z
" clip-path="url(#p89a44e8da1)" style="fill: #ff7f0e"/>
   </g>
   <g id="patch_108">
    <path d="M 67.547481 332.173329 
L 70.800533 332.173329 
L 70.800533 37.438125 
L 67.547481 37.438125 
z
" clip-path="url(#p89a44e8da1)" style="fill: #ff7f0e"/>
   </g>
   <g id="patch_109">
    <path d="M 71.613796 332.173329 
L 74.866847 332.173329 
L 74.866847 234.514009 
L 71.613796 234.514009 
z
" clip-path="url(#p89a44e8da1)" style="fill: #ff7f0e"/>
   </g>
   <g id="patch_110">
    <path d="M 75.68011 332.173329 
L 78.933162 332.173329 
L 78.933162 319.885175 
L 75.68011 319.885175 
z
" clip-path="url(#p89a44e8da1)" style="fill: #ff7f0e"/>
   </g>
   <g id="patch_111">
    <path d="M 79.746425 332.173329 
L 82.999476 332.173329 
L 82.999476 38.210726 
L 79.746425 38.210726 
z
" clip-path="url(#p89a44e8da1)" style="fill: #ff7f0e"/>
   </g>
   <g id="patch_112">
    <path d="M 83.812739 332.173329 
L 87.065791 332.173329 
L 87.065791 290.752118 
L 83.812739 290.752118 
z
" clip-path="url(#p89a44e8da1)" style="fill: #ff7f0e"/>
   </g>
   <g id="matplotlib.axis_1">
    <g id="xtick_1">
     <g id="line2d_1">
      <path d="M 48.842435 354.958125 
L 48.842435 22.318125 
" clip-path="url(#p89a44e8da1)" style="fill: none; stroke: #b0b0b0; stroke-width: 0.8; stroke-linecap: square"/>
     </g>
     <g id="line2d_2">
      <defs>
       <path id="m9091a3215f" d="M 0 0 
L 0 3.5 
" style="stroke: #000000; stroke-width: 0.8"/>
      </defs>
      <g>
       <use xlink:href="#m9091a3215f" x="48.842435" y="354.958125" style="stroke: #000000; stroke-width: 0.8"/>
      </g>
     </g>
     <g id="text_1">
      <!-- 0 -->
      <g transform="translate(45.661185 369.556562) scale(0.1 -0.1)">
       <defs>
        <path id="DejaVuSans-30" d="M 2034 4250 
Q 1547 4250 1301 3770 
Q 1056 3291 1056 2328 
Q 1056 1369 1301 889 
Q 1547 409 2034 409 
Q 2525 409 2770 889 
Q 3016 1369 3016 2328 
Q 3016 3291 2770 3770 
Q 2525 4250 2034 4250 
z
M 2034 4750 
Q 2819 4750 3233 4129 
Q 3647 3509 3647 2328 
Q 3647 1150 3233 529 
Q 2819 -91 2034 -91 
Q 1250 -91 836 529 
Q 422 1150 422 2328 
Q 422 3509 836 4129 
Q 1250 4750 2034 4750 
z
" transform="scale(0.015625)"/>
       </defs>
       <use xlink:href="#DejaVuSans-30"/>
      </g>
     </g>
    </g>
    <g id="xtick_2">
     <g id="line2d_3">
      <path d="M 130.168724 354.958125 
L 130.168724 22.318125 
" clip-path="url(#p89a44e8da1)" style="fill: none; stroke: #b0b0b0; stroke-width: 0.8; stroke-linecap: square"/>
     </g>
     <g id="line2d_4">
      <g>
       <use xlink:href="#m9091a3215f" x="130.168724" y="354.958125" style="stroke: #000000; stroke-width: 0.8"/>
      </g>
     </g>
     <g id="text_2">
      <!-- 20 -->
      <g transform="translate(123.806224 369.556562) scale(0.1 -0.1)">
       <defs>
        <path id="DejaVuSans-32" d="M 1228 531 
L 3431 531 
L 3431 0 
L 469 0 
L 469 531 
Q 828 903 1448 1529 
Q 2069 2156 2228 2338 
Q 2531 2678 2651 2914 
Q 2772 3150 2772 3378 
Q 2772 3750 2511 3984 
Q 2250 4219 1831 4219 
Q 1534 4219 1204 4116 
Q 875 4013 500 3803 
L 500 4441 
Q 881 4594 1212 4672 
Q 1544 4750 1819 4750 
Q 2544 4750 2975 4387 
Q 3406 4025 3406 3419 
Q 3406 3131 3298 2873 
Q 3191 2616 2906 2266 
Q 2828 2175 2409 1742 
Q 1991 1309 1228 531 
z
" transform="scale(0.015625)"/>
       </defs>
       <use xlink:href="#DejaVuSans-32"/>
       <use xlink:href="#DejaVuSans-30" transform="translate(63.623047 0)"/>
      </g>
     </g>
    </g>
    <g id="xtick_3">
     <g id="line2d_5">
      <path d="M 211.495013 354.958125 
L 211.495013 22.318125 
" clip-path="url(#p89a44e8da1)" style="fill: none; stroke: #b0b0b0; stroke-width: 0.8; stroke-linecap: square"/>
     </g>
     <g id="line2d_6">
      <g>
       <use xlink:href="#m9091a3215f" x="211.495013" y="354.958125" style="stroke: #000000; stroke-width: 0.8"/>
      </g>
     </g>
     <g id="text_3">
      <!-- 40 -->
      <g transform="translate(205.132513 369.556562) scale(0.1 -0.1)">
       <defs>
        <path id="DejaVuSans-34" d="M 2419 4116 
L 825 1625 
L 2419 1625 
L 2419 4116 
z
M 2253 4666 
L 3047 4666 
L 3047 1625 
L 3713 1625 
L 3713 1100 
L 3047 1100 
L 3047 0 
L 2419 0 
L 2419 1100 
L 313 1100 
L 313 1709 
L 2253 4666 
z
" transform="scale(0.015625)"/>
       </defs>
       <use xlink:href="#DejaVuSans-34"/>
       <use xlink:href="#DejaVuSans-30" transform="translate(63.623047 0)"/>
      </g>
     </g>
    </g>
    <g id="xtick_4">
     <g id="line2d_7">
      <path d="M 292.821302 354.958125 
L 292.821302 22.318125 
" clip-path="url(#p89a44e8da1)" style="fill: none; stroke: #b0b0b0; stroke-width: 0.8; stroke-linecap: square"/>
     </g>
     <g id="line2d_8">
      <g>
       <use xlink:href="#m9091a3215f" x="292.821302" y="354.958125" style="stroke: #000000; stroke-width: 0.8"/>
      </g>
     </g>
     <g id="text_4">
      <!-- 60 -->
      <g transform="translate(286.458802 369.556562) scale(0.1 -0.1)">
       <defs>
        <path id="DejaVuSans-36" d="M 2113 2584 
Q 1688 2584 1439 2293 
Q 1191 2003 1191 1497 
Q 1191 994 1439 701 
Q 1688 409 2113 409 
Q 2538 409 2786 701 
Q 3034 994 3034 1497 
Q 3034 2003 2786 2293 
Q 2538 2584 2113 2584 
z
M 3366 4563 
L 3366 3988 
Q 3128 4100 2886 4159 
Q 2644 4219 2406 4219 
Q 1781 4219 1451 3797 
Q 1122 3375 1075 2522 
Q 1259 2794 1537 2939 
Q 1816 3084 2150 3084 
Q 2853 3084 3261 2657 
Q 3669 2231 3669 1497 
Q 3669 778 3244 343 
Q 2819 -91 2113 -91 
Q 1303 -91 875 529 
Q 447 1150 447 2328 
Q 447 3434 972 4092 
Q 1497 4750 2381 4750 
Q 2619 4750 2861 4703 
Q 3103 4656 3366 4563 
z
" transform="scale(0.015625)"/>
       </defs>
       <use xlink:href="#DejaVuSans-36"/>
       <use xlink:href="#DejaVuSans-30" transform="translate(63.623047 0)"/>
      </g>
     </g>
    </g>
    <g id="xtick_5">
     <g id="line2d_9">
      <path d="M 374.147591 354.958125 
L 374.147591 22.318125 
" clip-path="url(#p89a44e8da1)" style="fill: none; stroke: #b0b0b0; stroke-width: 0.8; stroke-linecap: square"/>
     </g>
     <g id="line2d_10">
      <g>
       <use xlink:href="#m9091a3215f" x="374.147591" y="354.958125" style="stroke: #000000; stroke-width: 0.8"/>
      </g>
     </g>
     <g id="text_5">
      <!-- 80 -->
      <g transform="translate(367.785091 369.556562) scale(0.1 -0.1)">
       <defs>
        <path id="DejaVuSans-38" d="M 2034 2216 
Q 1584 2216 1326 1975 
Q 1069 1734 1069 1313 
Q 1069 891 1326 650 
Q 1584 409 2034 409 
Q 2484 409 2743 651 
Q 3003 894 3003 1313 
Q 3003 1734 2745 1975 
Q 2488 2216 2034 2216 
z
M 1403 2484 
Q 997 2584 770 2862 
Q 544 3141 544 3541 
Q 544 4100 942 4425 
Q 1341 4750 2034 4750 
Q 2731 4750 3128 4425 
Q 3525 4100 3525 3541 
Q 3525 3141 3298 2862 
Q 3072 2584 2669 2484 
Q 3125 2378 3379 2068 
Q 3634 1759 3634 1313 
Q 3634 634 3220 271 
Q 2806 -91 2034 -91 
Q 1263 -91 848 271 
Q 434 634 434 1313 
Q 434 1759 690 2068 
Q 947 2378 1403 2484 
z
M 1172 3481 
Q 1172 3119 1398 2916 
Q 1625 2713 2034 2713 
Q 2441 2713 2670 2916 
Q 2900 3119 2900 3481 
Q 2900 3844 2670 4047 
Q 2441 4250 2034 4250 
Q 1625 4250 1398 4047 
Q 1172 3844 1172 3481 
z
" transform="scale(0.015625)"/>
       </defs>
       <use xlink:href="#DejaVuSans-38"/>
       <use xlink:href="#DejaVuSans-30" transform="translate(63.623047 0)"/>
      </g>
     </g>
    </g>
    <g id="xtick_6">
     <g id="line2d_11">
      <path d="M 455.47388 354.958125 
L 455.47388 22.318125 
" clip-path="url(#p89a44e8da1)" style="fill: none; stroke: #b0b0b0; stroke-width: 0.8; stroke-linecap: square"/>
     </g>
     <g id="line2d_12">
      <g>
       <use xlink:href="#m9091a3215f" x="455.47388" y="354.958125" style="stroke: #000000; stroke-width: 0.8"/>
      </g>
     </g>
     <g id="text_6">
      <!-- 100 -->
      <g transform="translate(445.93013 369.556562) scale(0.1 -0.1)">
       <defs>
        <path id="DejaVuSans-31" d="M 794 531 
L 1825 531 
L 1825 4091 
L 703 3866 
L 703 4441 
L 1819 4666 
L 2450 4666 
L 2450 531 
L 3481 531 
L 3481 0 
L 794 0 
L 794 531 
z
" transform="scale(0.015625)"/>
       </defs>
       <use xlink:href="#DejaVuSans-31"/>
       <use xlink:href="#DejaVuSans-30" transform="translate(63.623047 0)"/>
       <use xlink:href="#DejaVuSans-30" transform="translate(127.246094 0)"/>
      </g>
     </g>
    </g>
   </g>
   <g id="matplotlib.axis_2">
    <g id="ytick_1">
     <g id="line2d_13">
      <path d="M 26.925 332.173329 
L 473.325 332.173329 
" clip-path="url(#p89a44e8da1)" style="fill: none; stroke: #b0b0b0; stroke-width: 0.8; stroke-linecap: square"/>
     </g>
     <g id="line2d_14">
      <defs>
       <path id="m138092b454" d="M 0 0 
L -3.5 0 
" style="stroke: #000000; stroke-width: 0.8"/>
      </defs>
      <g>
       <use xlink:href="#m138092b454" x="26.925" y="332.173329" style="stroke: #000000; stroke-width: 0.8"/>
      </g>
     </g>
     <g id="text_7">
      <!-- 0 -->
      <g transform="translate(13.5625 335.972547) scale(0.1 -0.1)">
       <use xlink:href="#DejaVuSans-30"/>
      </g>
     </g>
    </g>
    <g id="ytick_2">
     <g id="line2d_15">
      <path d="M 26.925 265.598474 
L 473.325 265.598474 
" clip-path="url(#p89a44e8da1)" style="fill: none; stroke: #b0b0b0; stroke-width: 0.8; stroke-linecap: square"/>
     </g>
     <g id="line2d_16">
      <g>
       <use xlink:href="#m138092b454" x="26.925" y="265.598474" style="stroke: #000000; stroke-width: 0.8"/>
      </g>
     </g>
     <g id="text_8">
      <!-- 20 -->
      <g transform="translate(7.2 269.397693) scale(0.1 -0.1)">
       <use xlink:href="#DejaVuSans-32"/>
       <use xlink:href="#DejaVuSans-30" transform="translate(63.623047 0)"/>
      </g>
     </g>
    </g>
    <g id="ytick_3">
     <g id="line2d_17">
      <path d="M 26.925 199.023619 
L 473.325 199.023619 
" clip-path="url(#p89a44e8da1)" style="fill: none; stroke: #b0b0b0; stroke-width: 0.8; stroke-linecap: square"/>
     </g>
     <g id="line2d_18">
      <g>
       <use xlink:href="#m138092b454" x="26.925" y="199.023619" style="stroke: #000000; stroke-width: 0.8"/>
      </g>
     </g>
     <g id="text_9">
      <!-- 40 -->
      <g transform="translate(7.2 202.822838) scale(0.1 -0.1)">
       <use xlink:href="#DejaVuSans-34"/>
       <use xlink:href="#DejaVuSans-30" transform="translate(63.623047 0)"/>
      </g>
     </g>
    </g>
    <g id="ytick_4">
     <g id="line2d_19">
      <path d="M 26.925 132.448765 
L 473.325 132.448765 
" clip-path="url(#p89a44e8da1)" style="fill: none; stroke: #b0b0b0; stroke-width: 0.8; stroke-linecap: square"/>
     </g>
     <g id="line2d_20">
      <g>
       <use xlink:href="#m138092b454" x="26.925" y="132.448765" style="stroke: #000000; stroke-width: 0.8"/>
      </g>
     </g>
     <g id="text_10">
      <!-- 60 -->
      <g transform="translate(7.2 136.247983) scale(0.1 -0.1)">
       <use xlink:href="#DejaVuSans-36"/>
       <use xlink:href="#DejaVuSans-30" transform="translate(63.623047 0)"/>
      </g>
     </g>
    </g>
    <g id="ytick_5">
     <g id="line2d_21">
      <path d="M 26.925 65.87391 
L 473.325 65.87391 
" clip-path="url(#p89a44e8da1)" style="fill: none; stroke: #b0b0b0; stroke-width: 0.8; stroke-linecap: square"/>
     </g>
     <g id="line2d_22">
      <g>
       <use xlink:href="#m138092b454" x="26.925" y="65.87391" style="stroke: #000000; stroke-width: 0.8"/>
      </g>
     </g>
     <g id="text_11">
      <!-- 80 -->
      <g transform="translate(7.2 69.673129) scale(0.1 -0.1)">
       <use xlink:href="#DejaVuSans-38"/>
       <use xlink:href="#DejaVuSans-30" transform="translate(63.623047 0)"/>
      </g>
     </g>
    </g>
   </g>
   <g id="patch_113">
    <path d="M 26.925 354.958125 
L 26.925 22.318125 
" style="fill: none; stroke: #000000; stroke-width: 0.8; stroke-linejoin: miter; stroke-linecap: square"/>
   </g>
   <g id="patch_114">
    <path d="M 473.325 354.958125 
L 473.325 22.318125 
" style="fill: none; stroke: #000000; stroke-width: 0.8; stroke-linejoin: miter; stroke-linecap: square"/>
   </g>
   <g id="patch_115">
    <path d="M 26.925 354.958125 
L 473.325 354.958125 
" style="fill: none; stroke: #000000; stroke-width: 0.8; stroke-linejoin: miter; stroke-linecap: square"/>
   </g>
   <g id="patch_116">
    <path d="M 26.925 22.318125 
L 473.325 22.318125 
" style="fill: none; stroke: #000000; stroke-width: 0.8; stroke-linejoin: miter; stroke-linecap: square"/>
   </g>
   <g id="text_12">
    <!-- Bar Chart - Normal Distribution -->
    <g transform="translate(156.872813 16.318125) scale(0.12 -0.12)">
     <defs>
      <path id="DejaVuSans-42" d="M 1259 2228 
L 1259 519 
L 2272 519 
Q 2781 519 3026 730 
Q 3272 941 3272 1375 
Q 3272 1813 3026 2020 
Q 2781 2228 2272 2228 
L 1259 2228 
z
M 1259 4147 
L 1259 2741 
L 2194 2741 
Q 2656 2741 2882 2914 
Q 3109 3088 3109 3444 
Q 3109 3797 2882 3972 
Q 2656 4147 2194 4147 
L 1259 4147 
z
M 628 4666 
L 2241 4666 
Q 2963 4666 3353 4366 
Q 3744 4066 3744 3513 
Q 3744 3084 3544 2831 
Q 3344 2578 2956 2516 
Q 3422 2416 3680 2098 
Q 3938 1781 3938 1306 
Q 3938 681 3513 340 
Q 3088 0 2303 0 
L 628 0 
L 628 4666 
z
" transform="scale(0.015625)"/>
      <path id="DejaVuSans-61" d="M 2194 1759 
Q 1497 1759 1228 1600 
Q 959 1441 959 1056 
Q 959 750 1161 570 
Q 1363 391 1709 391 
Q 2188 391 2477 730 
Q 2766 1069 2766 1631 
L 2766 1759 
L 2194 1759 
z
M 3341 1997 
L 3341 0 
L 2766 0 
L 2766 531 
Q 2569 213 2275 61 
Q 1981 -91 1556 -91 
Q 1019 -91 701 211 
Q 384 513 384 1019 
Q 384 1609 779 1909 
Q 1175 2209 1959 2209 
L 2766 2209 
L 2766 2266 
Q 2766 2663 2505 2880 
Q 2244 3097 1772 3097 
Q 1472 3097 1187 3025 
Q 903 2953 641 2809 
L 641 3341 
Q 956 3463 1253 3523 
Q 1550 3584 1831 3584 
Q 2591 3584 2966 3190 
Q 3341 2797 3341 1997 
z
" transform="scale(0.015625)"/>
      <path id="DejaVuSans-72" d="M 2631 2963 
Q 2534 3019 2420 3045 
Q 2306 3072 2169 3072 
Q 1681 3072 1420 2755 
Q 1159 2438 1159 1844 
L 1159 0 
L 581 0 
L 581 3500 
L 1159 3500 
L 1159 2956 
Q 1341 3275 1631 3429 
Q 1922 3584 2338 3584 
Q 2397 3584 2469 3576 
Q 2541 3569 2628 3553 
L 2631 2963 
z
" transform="scale(0.015625)"/>
      <path id="DejaVuSans-20" transform="scale(0.015625)"/>
      <path id="DejaVuSans-43" d="M 4122 4306 
L 4122 3641 
Q 3803 3938 3442 4084 
Q 3081 4231 2675 4231 
Q 1875 4231 1450 3742 
Q 1025 3253 1025 2328 
Q 1025 1406 1450 917 
Q 1875 428 2675 428 
Q 3081 428 3442 575 
Q 3803 722 4122 1019 
L 4122 359 
Q 3791 134 3420 21 
Q 3050 -91 2638 -91 
Q 1578 -91 968 557 
Q 359 1206 359 2328 
Q 359 3453 968 4101 
Q 1578 4750 2638 4750 
Q 3056 4750 3426 4639 
Q 3797 4528 4122 4306 
z
" transform="scale(0.015625)"/>
      <path id="DejaVuSans-68" d="M 3513 2113 
L 3513 0 
L 2938 0 
L 2938 2094 
Q 2938 2591 2744 2837 
Q 2550 3084 2163 3084 
Q 1697 3084 1428 2787 
Q 1159 2491 1159 1978 
L 1159 0 
L 581 0 
L 581 4863 
L 1159 4863 
L 1159 2956 
Q 1366 3272 1645 3428 
Q 1925 3584 2291 3584 
Q 2894 3584 3203 3211 
Q 3513 2838 3513 2113 
z
" transform="scale(0.015625)"/>
      <path id="DejaVuSans-74" d="M 1172 4494 
L 1172 3500 
L 2356 3500 
L 2356 3053 
L 1172 3053 
L 1172 1153 
Q 1172 725 1289 603 
Q 1406 481 1766 481 
L 2356 481 
L 2356 0 
L 1766 0 
Q 1100 0 847 248 
Q 594 497 594 1153 
L 594 3053 
L 172 3053 
L 172 3500 
L 594 3500 
L 594 4494 
L 1172 4494 
z
" transform="scale(0.015625)"/>
      <path id="DejaVuSans-2d" d="M 313 2009 
L 1997 2009 
L 1997 1497 
L 313 1497 
L 313 2009 
z
" transform="scale(0.015625)"/>
      <path id="DejaVuSans-4e" d="M 628 4666 
L 1478 4666 
L 3547 763 
L 3547 4666 
L 4159 4666 
L 4159 0 
L 3309 0 
L 1241 3903 
L 1241 0 
L 628 0 
L 628 4666 
z
" transform="scale(0.015625)"/>
      <path id="DejaVuSans-6f" d="M 1959 3097 
Q 1497 3097 1228 2736 
Q 959 2375 959 1747 
Q 959 1119 1226 758 
Q 1494 397 1959 397 
Q 2419 397 2687 759 
Q 2956 1122 2956 1747 
Q 2956 2369 2687 2733 
Q 2419 3097 1959 3097 
z
M 1959 3584 
Q 2709 3584 3137 3096 
Q 3566 2609 3566 1747 
Q 3566 888 3137 398 
Q 2709 -91 1959 -91 
Q 1206 -91 779 398 
Q 353 888 353 1747 
Q 353 2609 779 3096 
Q 1206 3584 1959 3584 
z
" transform="scale(0.015625)"/>
      <path id="DejaVuSans-6d" d="M 3328 2828 
Q 3544 3216 3844 3400 
Q 4144 3584 4550 3584 
Q 5097 3584 5394 3201 
Q 5691 2819 5691 2113 
L 5691 0 
L 5113 0 
L 5113 2094 
Q 5113 2597 4934 2840 
Q 4756 3084 4391 3084 
Q 3944 3084 3684 2787 
Q 3425 2491 3425 1978 
L 3425 0 
L 2847 0 
L 2847 2094 
Q 2847 2600 2669 2842 
Q 2491 3084 2119 3084 
Q 1678 3084 1418 2786 
Q 1159 2488 1159 1978 
L 1159 0 
L 581 0 
L 581 3500 
L 1159 3500 
L 1159 2956 
Q 1356 3278 1631 3431 
Q 1906 3584 2284 3584 
Q 2666 3584 2933 3390 
Q 3200 3197 3328 2828 
z
" transform="scale(0.015625)"/>
      <path id="DejaVuSans-6c" d="M 603 4863 
L 1178 4863 
L 1178 0 
L 603 0 
L 603 4863 
z
" transform="scale(0.015625)"/>
      <path id="DejaVuSans-44" d="M 1259 4147 
L 1259 519 
L 2022 519 
Q 2988 519 3436 956 
Q 3884 1394 3884 2338 
Q 3884 3275 3436 3711 
Q 2988 4147 2022 4147 
L 1259 4147 
z
M 628 4666 
L 1925 4666 
Q 3281 4666 3915 4102 
Q 4550 3538 4550 2338 
Q 4550 1131 3912 565 
Q 3275 0 1925 0 
L 628 0 
L 628 4666 
z
" transform="scale(0.015625)"/>
      <path id="DejaVuSans-69" d="M 603 3500 
L 1178 3500 
L 1178 0 
L 603 0 
L 603 3500 
z
M 603 4863 
L 1178 4863 
L 1178 4134 
L 603 4134 
L 603 4863 
z
" transform="scale(0.015625)"/>
      <path id="DejaVuSans-73" d="M 2834 3397 
L 2834 2853 
Q 2591 2978 2328 3040 
Q 2066 3103 1784 3103 
Q 1356 3103 1142 2972 
Q 928 2841 928 2578 
Q 928 2378 1081 2264 
Q 1234 2150 1697 2047 
L 1894 2003 
Q 2506 1872 2764 1633 
Q 3022 1394 3022 966 
Q 3022 478 2636 193 
Q 2250 -91 1575 -91 
Q 1294 -91 989 -36 
Q 684 19 347 128 
L 347 722 
Q 666 556 975 473 
Q 1284 391 1588 391 
Q 1994 391 2212 530 
Q 2431 669 2431 922 
Q 2431 1156 2273 1281 
Q 2116 1406 1581 1522 
L 1381 1569 
Q 847 1681 609 1914 
Q 372 2147 372 2553 
Q 372 3047 722 3315 
Q 1072 3584 1716 3584 
Q 2034 3584 2315 3537 
Q 2597 3491 2834 3397 
z
" transform="scale(0.015625)"/>
      <path id="DejaVuSans-62" d="M 3116 1747 
Q 3116 2381 2855 2742 
Q 2594 3103 2138 3103 
Q 1681 3103 1420 2742 
Q 1159 2381 1159 1747 
Q 1159 1113 1420 752 
Q 1681 391 2138 391 
Q 2594 391 2855 752 
Q 3116 1113 3116 1747 
z
M 1159 2969 
Q 1341 3281 1617 3432 
Q 1894 3584 2278 3584 
Q 2916 3584 3314 3078 
Q 3713 2572 3713 1747 
Q 3713 922 3314 415 
Q 2916 -91 2278 -91 
Q 1894 -91 1617 61 
Q 1341 213 1159 525 
L 1159 0 
L 581 0 
L 581 4863 
L 1159 4863 
L 1159 2969 
z
" transform="scale(0.015625)"/>
      <path id="DejaVuSans-75" d="M 544 1381 
L 544 3500 
L 1119 3500 
L 1119 1403 
Q 1119 906 1312 657 
Q 1506 409 1894 409 
Q 2359 409 2629 706 
Q 2900 1003 2900 1516 
L 2900 3500 
L 3475 3500 
L 3475 0 
L 2900 0 
L 2900 538 
Q 2691 219 2414 64 
Q 2138 -91 1772 -91 
Q 1169 -91 856 284 
Q 544 659 544 1381 
z
M 1991 3584 
L 1991 3584 
z
" transform="scale(0.015625)"/>
      <path id="DejaVuSans-6e" d="M 3513 2113 
L 3513 0 
L 2938 0 
L 2938 2094 
Q 2938 2591 2744 2837 
Q 2550 3084 2163 3084 
Q 1697 3084 1428 2787 
Q 1159 2491 1159 1978 
L 1159 0 
L 581 0 
L 581 3500 
L 1159 3500 
L 1159 2956 
Q 1366 3272 1645 3428 
Q 1925 3584 2291 3584 
Q 2894 3584 3203 3211 
Q 3513 2838 3513 2113 
z
" transform="scale(0.015625)"/>
     </defs>
     <use xlink:href="#DejaVuSans-42"/>
     <use xlink:href="#DejaVuSans-61" transform="translate(68.603516 0)"/>
     <use xlink:href="#DejaVuSans-72" transform="translate(129.882812 0)"/>
     <use xlink:href="#DejaVuSans-20" transform="translate(170.996094 0)"/>
     <use xlink:href="#DejaVuSans-43" transform="translate(202.783203 0)"/>
     <use xlink:href="#DejaVuSans-68" transform="translate(272.607422 0)"/>
     <use xlink:href="#DejaVuSans-61" transform="translate(335.986328 0)"/>
     <use xlink:href="#DejaVuSans-72" transform="translate(397.265625 0)"/>
     <use xlink:href="#DejaVuSans-74" transform="translate(438.378906 0)"/>
     <use xlink:href="#DejaVuSans-20" transform="translate(477.587891 0)"/>
     <use xlink:href="#DejaVuSans-2d" transform="translate(509.375 0)"/>
     <use xlink:href="#DejaVuSans-20" transform="translate(545.458984 0)"/>
     <use xlink:href="#DejaVuSans-4e" transform="translate(577.246094 0)"/>
     <use xlink:href="#DejaVuSans-6f" transform="translate(652.050781 0)"/>
     <use xlink:href="#DejaVuSans-72" transform="translate(713.232422 0)"/>
     <use xlink:href="#DejaVuSans-6d" transform="translate(752.595703 0)"/>
     <use xlink:href="#DejaVuSans-61" transform="translate(850.007812 0)"/>
     <use xlink:href="#DejaVuSans-6c" transform="translate(911.287109 0)"/>
     <use xlink:href="#DejaVuSans-20" transform="translate(939.070312 0)"/>
     <use xlink:href="#DejaVuSans-44" transform="translate(970.857422 0)"/>
     <use xlink:href="#DejaVuSans-69" transform="translate(1047.859375 0)"/>
     <use xlink:href="#DejaVuSans-73" transform="translate(1075.642578 0)"/>
     <use xlink:href="#DejaVuSans-74" transform="translate(1127.742188 0)"/>
     <use xlink:href="#DejaVuSans-72" transform="translate(1166.951172 0)"/>
     <use xlink:href="#DejaVuSans-69" transform="translate(1208.064453 0)"/>
     <use xlink:href="#DejaVuSans-62" transform="translate(1235.847656 0)"/>
     <use xlink:href="#DejaVuSans-75" transform="translate(1299.324219 0)"/>
     <use xlink:href="#DejaVuSans-74" transform="translate(1362.703125 0)"/>
     <use xlink:href="#DejaVuSans-69" transform="translate(1401.912109 0)"/>
     <use xlink:href="#DejaVuSans-6f" transform="translate(1429.695312 0)"/>
     <use xlink:href="#DejaVuSans-6e" transform="translate(1490.876953 0)"/>
    </g>
   </g>
   <g id="legend_1">
    <g id="patch_117">
     <path d="M 387.596875 59.9525 
L 466.325 59.9525 
Q 468.325 59.9525 468.325 57.9525 
L 468.325 29.318125 
Q 468.325 27.318125 466.325 27.318125 
L 387.596875 27.318125 
Q 385.596875 27.318125 385.596875 29.318125 
L 385.596875 57.9525 
Q 385.596875 59.9525 387.596875 59.9525 
z
" style="fill: #ffffff; opacity: 0.8; stroke: #cccccc; stroke-linejoin: miter"/>
    </g>
    <g id="patch_118">
     <path d="M 389.596875 38.916562 
L 409.596875 38.916562 
L 409.596875 31.916562 
L 389.596875 31.916562 
z
" style="fill: #1f77b4"/>
    </g>
    <g id="text_13">
     <!-- test_data -->
     <g transform="translate(417.596875 38.916562) scale(0.1 -0.1)">
      <defs>
       <path id="DejaVuSans-65" d="M 3597 1894 
L 3597 1613 
L 953 1613 
Q 991 1019 1311 708 
Q 1631 397 2203 397 
Q 2534 397 2845 478 
Q 3156 559 3463 722 
L 3463 178 
Q 3153 47 2828 -22 
Q 2503 -91 2169 -91 
Q 1331 -91 842 396 
Q 353 884 353 1716 
Q 353 2575 817 3079 
Q 1281 3584 2069 3584 
Q 2775 3584 3186 3129 
Q 3597 2675 3597 1894 
z
M 3022 2063 
Q 3016 2534 2758 2815 
Q 2500 3097 2075 3097 
Q 1594 3097 1305 2825 
Q 1016 2553 972 2059 
L 3022 2063 
z
" transform="scale(0.015625)"/>
       <path id="DejaVuSans-5f" d="M 3263 -1063 
L 3263 -1509 
L -63 -1509 
L -63 -1063 
L 3263 -1063 
z
" transform="scale(0.015625)"/>
       <path id="DejaVuSans-64" d="M 2906 2969 
L 2906 4863 
L 3481 4863 
L 3481 0 
L 2906 0 
L 2906 525 
Q 2725 213 2448 61 
Q 2172 -91 1784 -91 
Q 1150 -91 751 415 
Q 353 922 353 1747 
Q 353 2572 751 3078 
Q 1150 3584 1784 3584 
Q 2172 3584 2448 3432 
Q 2725 3281 2906 2969 
z
M 947 1747 
Q 947 1113 1208 752 
Q 1469 391 1925 391 
Q 2381 391 2643 752 
Q 2906 1113 2906 1747 
Q 2906 2381 2643 2742 
Q 2381 3103 1925 3103 
Q 1469 3103 1208 2742 
Q 947 2381 947 1747 
z
" transform="scale(0.015625)"/>
      </defs>
      <use xlink:href="#DejaVuSans-74"/>
      <use xlink:href="#DejaVuSans-65" transform="translate(39.208984 0)"/>
      <use xlink:href="#DejaVuSans-73" transform="translate(100.732422 0)"/>
      <use xlink:href="#DejaVuSans-74" transform="translate(152.832031 0)"/>
      <use xlink:href="#DejaVuSans-5f" transform="translate(192.041016 0)"/>
      <use xlink:href="#DejaVuSans-64" transform="translate(242.041016 0)"/>
      <use xlink:href="#DejaVuSans-61" transform="translate(305.517578 0)"/>
      <use xlink:href="#DejaVuSans-74" transform="translate(366.796875 0)"/>
      <use xlink:href="#DejaVuSans-61" transform="translate(406.005859 0)"/>
     </g>
    </g>
    <g id="patch_119">
     <path d="M 389.596875 53.872813 
L 409.596875 53.872813 
L 409.596875 46.872813 
L 389.596875 46.872813 
z
" style="fill: #ff7f0e"/>
    </g>
    <g id="text_14">
     <!-- bars -->
     <g transform="translate(417.596875 53.872813) scale(0.1 -0.1)">
      <use xlink:href="#DejaVuSans-62"/>
      <use xlink:href="#DejaVuSans-61" transform="translate(63.476562 0)"/>
      <use xlink:href="#DejaVuSans-72" transform="translate(124.755859 0)"/>
      <use xlink:href="#DejaVuSans-73" transform="translate(165.869141 0)"/>
     </g>
    </g>
   </g>
  </g>
 </g>
 <defs>
  <clipPath id="p89a44e8da1">
   <rect x="26.925" y="22.318125" width="446.4" height="332.64"/>
  </clipPath>
 </defs>
</svg>
